<mxfile host="app.diagrams.net" modified="2021-02-23T09:08:33.950Z" agent="5.0 (Windows NT 10.0; Win64; x64) AppleWebKit/537.36 (KHTML, like Gecko) Chrome/88.0.4324.146 Safari/537.36" etag="TIB4qY88Eh4R5xNSb610" version="14.3.0" type="github">
  <diagram id="5oaMH4ZUgWZp9NCCxD_T" name="Page-1">
    <mxGraphModel dx="2272" dy="1862" grid="1" gridSize="10" guides="1" tooltips="1" connect="1" arrows="1" fold="1" page="1" pageScale="1" pageWidth="850" pageHeight="1100" math="0" shadow="0">
      <root>
        <mxCell id="0" />
        <mxCell id="1" parent="0" />
        <mxCell id="tTHf1RySXlvjNt78tsi--60" value="" style="rounded=0;whiteSpace=wrap;html=1;dashed=1;strokeWidth=3;" parent="1" vertex="1">
          <mxGeometry x="-174.75" y="80" width="700" height="390" as="geometry" />
        </mxCell>
        <mxCell id="tTHf1RySXlvjNt78tsi--49" value="" style="rounded=0;whiteSpace=wrap;html=1;dashed=1;strokeWidth=3;" parent="1" vertex="1">
          <mxGeometry x="-194.75" y="-190" width="860" height="180" as="geometry" />
        </mxCell>
        <mxCell id="tTHf1RySXlvjNt78tsi--26" value="" style="rounded=0;whiteSpace=wrap;html=1;dashed=1;strokeWidth=3;" parent="1" vertex="1">
          <mxGeometry x="-190" y="-730" width="860" height="470" as="geometry" />
        </mxCell>
        <mxCell id="tTHf1RySXlvjNt78tsi--21" value="SNIP20&lt;br&gt;Contract" style="whiteSpace=wrap;html=1;aspect=fixed;fillColor=#e1d5e7;strokeColor=#9673a6;" parent="1" vertex="1">
          <mxGeometry x="30.25" y="-130" width="80" height="80" as="geometry" />
        </mxCell>
        <mxCell id="tTHf1RySXlvjNt78tsi--22" value="sETH" style="rounded=0;whiteSpace=wrap;html=1;" parent="1" vertex="1">
          <mxGeometry x="30.25" y="-150" width="80" height="20" as="geometry" />
        </mxCell>
        <mxCell id="tTHf1RySXlvjNt78tsi--23" value="SNIP20&lt;br&gt;Contract" style="whiteSpace=wrap;html=1;aspect=fixed;fillColor=#e1d5e7;strokeColor=#9673a6;" parent="1" vertex="1">
          <mxGeometry x="130.25" y="-130" width="80" height="80" as="geometry" />
        </mxCell>
        <mxCell id="tTHf1RySXlvjNt78tsi--24" value="sDAI" style="rounded=0;whiteSpace=wrap;html=1;" parent="1" vertex="1">
          <mxGeometry x="130.25" y="-150" width="80" height="20" as="geometry" />
        </mxCell>
        <mxCell id="tTHf1RySXlvjNt78tsi--25" value="&lt;b&gt;&lt;font style=&quot;font-size: 24px&quot;&gt;Secret Network Components to Interact&lt;/font&gt;&lt;/b&gt;" style="text;html=1;strokeColor=none;fillColor=none;align=center;verticalAlign=middle;whiteSpace=wrap;rounded=0;" parent="1" vertex="1">
          <mxGeometry x="-184.75" y="-240" width="840" height="50" as="geometry" />
        </mxCell>
        <mxCell id="tTHf1RySXlvjNt78tsi--30" value="Factory Contract" style="whiteSpace=wrap;html=1;aspect=fixed;fillColor=#fff2cc;strokeColor=#d6b656;" parent="1" vertex="1">
          <mxGeometry x="-166" y="-700" width="80" height="80" as="geometry" />
        </mxCell>
        <mxCell id="tTHf1RySXlvjNt78tsi--31" value="Instanciate Secret Order Book Contracts&lt;br&gt;Get Secret Order Book Contact address&lt;br&gt;Create User View Key for Authenticated Queries" style="text;html=1;strokeColor=none;fillColor=none;align=left;verticalAlign=middle;whiteSpace=wrap;rounded=0;dashed=1;" parent="1" vertex="1">
          <mxGeometry x="-72.87" y="-690" width="332.5" height="60" as="geometry" />
        </mxCell>
        <mxCell id="tTHf1RySXlvjNt78tsi--35" value="1x Order Book Contract will be instantiated for each trading pair that wants limit orders. Some functions:&lt;br&gt;&lt;ul&gt;&lt;li&gt;Limit Orders (CRUD) (from Users)&lt;/li&gt;&lt;ul&gt;&lt;li&gt;create_limit_order: Creates new limit order, receiving the operation (bid || ask), the demon and quantity from both trading tokens (Sends tokens to the contract) (Contract calculates the prices)&lt;/li&gt;&lt;li&gt;withdraw_limit_order: Deletes the limit order and withdraws the limit order original funds or the result of the triggered limit order.&lt;/li&gt;&lt;li&gt;get_limit_orders: Get the limit order for this specific user (ViewKey Authentication)&lt;/li&gt;&lt;/ul&gt;&lt;li&gt;Trigger Limit Orders (from Anyone)&lt;/li&gt;&lt;ul&gt;&lt;li&gt;trigger_limit_orders: Triggers limit orders on the contract and interact with secretAMM.&lt;/li&gt;&lt;/ul&gt;&lt;li&gt;Check if order book has limit orders to be triggered (from Anyone)&lt;/li&gt;&lt;ul&gt;&lt;li&gt;check_order_book_trigger: returns true if need there are limit orders that need a trigger and false otherwise.&amp;nbsp;&lt;/li&gt;&lt;/ul&gt;&lt;/ul&gt;" style="text;html=1;strokeColor=none;fillColor=none;align=left;verticalAlign=middle;whiteSpace=wrap;rounded=0;dashed=1;" parent="1" vertex="1">
          <mxGeometry x="-30" y="-605" width="690" height="190" as="geometry" />
        </mxCell>
        <mxCell id="tTHf1RySXlvjNt78tsi--40" value="&lt;b&gt;&lt;font style=&quot;font-size: 24px&quot;&gt;To Build Components&lt;/font&gt;&lt;/b&gt;" style="text;html=1;strokeColor=none;fillColor=none;align=center;verticalAlign=middle;whiteSpace=wrap;rounded=0;" parent="1" vertex="1">
          <mxGeometry x="-180" y="-780" width="840" height="50" as="geometry" />
        </mxCell>
        <mxCell id="tTHf1RySXlvjNt78tsi--41" value="Order Triggerer&lt;br&gt;(Centralized Instance)" style="whiteSpace=wrap;html=1;aspect=fixed;fillColor=#f8cecc;strokeColor=#b85450;" parent="1" vertex="1">
          <mxGeometry x="-158.5" y="-415" width="110" height="110" as="geometry" />
        </mxCell>
        <mxCell id="tTHf1RySXlvjNt78tsi--42" value="Sends check_order_book_trigger on every block to check if needs to trigger limit orders&lt;br&gt;Sends trigger_limit_orders trigger to Secret Order Book Contract when true&amp;nbsp;" style="text;html=1;strokeColor=none;fillColor=none;align=left;verticalAlign=middle;whiteSpace=wrap;rounded=0;dashed=1;" parent="1" vertex="1">
          <mxGeometry x="-30" y="-390" width="592.5" height="60" as="geometry" />
        </mxCell>
        <mxCell id="tTHf1RySXlvjNt78tsi--43" value="SNIP20&lt;br&gt;Contract" style="whiteSpace=wrap;html=1;aspect=fixed;fillColor=#e1d5e7;strokeColor=#9673a6;" parent="1" vertex="1">
          <mxGeometry x="-64.75" y="-130" width="80" height="80" as="geometry" />
        </mxCell>
        <mxCell id="tTHf1RySXlvjNt78tsi--44" value="sSCRT" style="rounded=0;whiteSpace=wrap;html=1;" parent="1" vertex="1">
          <mxGeometry x="-64.75" y="-150" width="80" height="20" as="geometry" />
        </mxCell>
        <mxCell id="tTHf1RySXlvjNt78tsi--48" value="Secret AMM" style="whiteSpace=wrap;html=1;aspect=fixed;fillColor=#d5e8d4;strokeColor=#82b366;" parent="1" vertex="1">
          <mxGeometry x="310.25" y="-156" width="110" height="110" as="geometry" />
        </mxCell>
        <mxCell id="tTHf1RySXlvjNt78tsi--51" value="Balances" style="rounded=0;whiteSpace=wrap;html=1;fillColor=#f5f5f5;strokeColor=#666666;fontColor=#333333;" parent="1" vertex="1">
          <mxGeometry x="-146.75" y="-520" width="80" height="20" as="geometry" />
        </mxCell>
        <mxCell id="tTHf1RySXlvjNt78tsi--53" value="Order Book" style="rounded=0;whiteSpace=wrap;html=1;fillColor=#f5f5f5;strokeColor=#666666;fontColor=#333333;" parent="1" vertex="1">
          <mxGeometry x="-146.75" y="-500" width="80" height="20" as="geometry" />
        </mxCell>
        <mxCell id="tTHf1RySXlvjNt78tsi--55" value="Limit Orders" style="rounded=0;whiteSpace=wrap;html=1;fillColor=#f5f5f5;strokeColor=#666666;fontColor=#333333;" parent="1" vertex="1">
          <mxGeometry x="-146.75" y="-480" width="80" height="20" as="geometry" />
        </mxCell>
        <mxCell id="tTHf1RySXlvjNt78tsi--57" value="Secret Order Book" style="rounded=0;whiteSpace=wrap;html=1;fillColor=#dae8fc;strokeColor=#6c8ebf;" parent="1" vertex="1">
          <mxGeometry x="-163.5" y="-590" width="113.5" height="70" as="geometry" />
        </mxCell>
        <mxCell id="tTHf1RySXlvjNt78tsi--59" value="&lt;b&gt;&lt;font style=&quot;font-size: 18px&quot;&gt;1. Instanciate Secret Order Book&lt;/font&gt;&lt;/b&gt;" style="text;html=1;strokeColor=none;fillColor=none;align=center;verticalAlign=middle;whiteSpace=wrap;rounded=0;dashed=1;" parent="1" vertex="1">
          <mxGeometry x="-192.69" y="90" width="340" height="20" as="geometry" />
        </mxCell>
        <mxCell id="tTHf1RySXlvjNt78tsi--72" value="&lt;font style=&quot;font-size: 14px&quot;&gt;Instanciate&lt;/font&gt;" style="edgeStyle=orthogonalEdgeStyle;rounded=0;orthogonalLoop=1;jettySize=auto;html=1;exitX=1;exitY=0.5;exitDx=0;exitDy=0;" parent="1" source="tTHf1RySXlvjNt78tsi--61" target="tTHf1RySXlvjNt78tsi--62" edge="1">
          <mxGeometry x="-0.0501" y="13" relative="1" as="geometry">
            <mxPoint as="offset" />
          </mxGeometry>
        </mxCell>
        <mxCell id="t3SGVUeOcSnNwYDZsion-3" style="edgeStyle=orthogonalEdgeStyle;rounded=0;orthogonalLoop=1;jettySize=auto;html=1;exitX=0.25;exitY=0;exitDx=0;exitDy=0;entryX=0.5;entryY=1;entryDx=0;entryDy=0;" parent="1" source="tTHf1RySXlvjNt78tsi--61" target="t3SGVUeOcSnNwYDZsion-1" edge="1">
          <mxGeometry relative="1" as="geometry">
            <Array as="points">
              <mxPoint x="24" y="250" />
              <mxPoint x="-31" y="250" />
            </Array>
          </mxGeometry>
        </mxCell>
        <mxCell id="t3SGVUeOcSnNwYDZsion-5" value="Validate Inputs" style="edgeLabel;html=1;align=center;verticalAlign=middle;resizable=0;points=[];fontSize=14;" parent="t3SGVUeOcSnNwYDZsion-3" vertex="1" connectable="0">
          <mxGeometry x="-0.1971" y="3" relative="1" as="geometry">
            <mxPoint x="52.2" y="-17.8" as="offset" />
          </mxGeometry>
        </mxCell>
        <mxCell id="t3SGVUeOcSnNwYDZsion-6" style="edgeStyle=orthogonalEdgeStyle;rounded=0;orthogonalLoop=1;jettySize=auto;html=1;exitX=0.75;exitY=0;exitDx=0;exitDy=0;entryX=0.5;entryY=1;entryDx=0;entryDy=0;fontSize=14;" parent="1" source="tTHf1RySXlvjNt78tsi--61" target="t3SGVUeOcSnNwYDZsion-2" edge="1">
          <mxGeometry relative="1" as="geometry">
            <Array as="points">
              <mxPoint x="71" y="250" />
              <mxPoint x="127" y="250" />
            </Array>
          </mxGeometry>
        </mxCell>
        <mxCell id="tTHf1RySXlvjNt78tsi--61" value="&lt;font style=&quot;font-size: 14px&quot;&gt;Factory&lt;/font&gt;" style="whiteSpace=wrap;html=1;aspect=fixed;fillColor=#ffe6cc;strokeColor=#d79b00;" parent="1" vertex="1">
          <mxGeometry x="-1.7763568394002505e-15" y="265.5" width="95" height="95" as="geometry" />
        </mxCell>
        <mxCell id="tTHf1RySXlvjNt78tsi--76" style="edgeStyle=orthogonalEdgeStyle;rounded=0;orthogonalLoop=1;jettySize=auto;html=1;exitX=1;exitY=0.25;exitDx=0;exitDy=0;entryX=0;entryY=0.5;entryDx=0;entryDy=0;fontSize=13;" parent="1" source="tTHf1RySXlvjNt78tsi--62" target="tTHf1RySXlvjNt78tsi--70" edge="1">
          <mxGeometry relative="1" as="geometry" />
        </mxCell>
        <mxCell id="tTHf1RySXlvjNt78tsi--79" value="&lt;font style=&quot;font-size: 14px&quot;&gt;Register&lt;/font&gt;" style="edgeLabel;html=1;align=center;verticalAlign=middle;resizable=0;points=[];fontSize=14;" parent="tTHf1RySXlvjNt78tsi--76" vertex="1" connectable="0">
          <mxGeometry x="-0.4407" y="2" relative="1" as="geometry">
            <mxPoint x="-3.53" y="-88.53" as="offset" />
          </mxGeometry>
        </mxCell>
        <mxCell id="tTHf1RySXlvjNt78tsi--77" style="edgeStyle=orthogonalEdgeStyle;rounded=0;orthogonalLoop=1;jettySize=auto;html=1;exitX=1;exitY=0.75;exitDx=0;exitDy=0;entryX=0;entryY=0.5;entryDx=0;entryDy=0;fontSize=13;" parent="1" source="tTHf1RySXlvjNt78tsi--62" target="tTHf1RySXlvjNt78tsi--68" edge="1">
          <mxGeometry relative="1" as="geometry" />
        </mxCell>
        <mxCell id="tTHf1RySXlvjNt78tsi--80" value="Register" style="edgeLabel;html=1;align=center;verticalAlign=middle;resizable=0;points=[];fontSize=14;" parent="tTHf1RySXlvjNt78tsi--77" vertex="1" connectable="0">
          <mxGeometry x="0.2061" relative="1" as="geometry">
            <mxPoint x="-6.79" y="46.03" as="offset" />
          </mxGeometry>
        </mxCell>
        <mxCell id="tTHf1RySXlvjNt78tsi--81" style="edgeStyle=orthogonalEdgeStyle;rounded=0;orthogonalLoop=1;jettySize=auto;html=1;exitX=0.5;exitY=1;exitDx=0;exitDy=0;entryX=0.5;entryY=1;entryDx=0;entryDy=0;fontSize=14;" parent="1" source="tTHf1RySXlvjNt78tsi--62" target="tTHf1RySXlvjNt78tsi--61" edge="1">
          <mxGeometry relative="1" as="geometry">
            <Array as="points">
              <mxPoint x="248" y="410" />
              <mxPoint x="48" y="410" />
            </Array>
          </mxGeometry>
        </mxCell>
        <mxCell id="tTHf1RySXlvjNt78tsi--82" value="Address Callback" style="edgeLabel;html=1;align=center;verticalAlign=middle;resizable=0;points=[];fontSize=14;" parent="tTHf1RySXlvjNt78tsi--81" vertex="1" connectable="0">
          <mxGeometry x="0.2656" relative="1" as="geometry">
            <mxPoint x="31.84" y="-20.06" as="offset" />
          </mxGeometry>
        </mxCell>
        <mxCell id="tTHf1RySXlvjNt78tsi--62" value="&lt;font style=&quot;font-size: 14px&quot;&gt;Secret Order Book&lt;/font&gt;" style="rounded=0;whiteSpace=wrap;html=1;fillColor=#dae8fc;strokeColor=#6c8ebf;" parent="1" vertex="1">
          <mxGeometry x="189.75" y="268" width="116.75" height="90" as="geometry" />
        </mxCell>
        <mxCell id="tTHf1RySXlvjNt78tsi--68" value="&lt;font style=&quot;font-size: 14px&quot;&gt;SNIP20&lt;br&gt;Token&lt;br&gt;sETH&lt;br&gt;&lt;/font&gt;" style="whiteSpace=wrap;html=1;aspect=fixed;fillColor=#e1d5e7;strokeColor=#9673a6;" parent="1" vertex="1">
          <mxGeometry x="400" y="360.5" width="80" height="80" as="geometry" />
        </mxCell>
        <mxCell id="tTHf1RySXlvjNt78tsi--70" value="&lt;font style=&quot;font-size: 14px&quot;&gt;SNIP20&lt;br&gt;Token&lt;br&gt;sSCRT&lt;br&gt;&lt;/font&gt;" style="whiteSpace=wrap;html=1;aspect=fixed;fillColor=#e1d5e7;strokeColor=#9673a6;" parent="1" vertex="1">
          <mxGeometry x="400" y="188" width="80" height="80" as="geometry" />
        </mxCell>
        <mxCell id="tTHf1RySXlvjNt78tsi--73" value="" style="endArrow=classic;html=1;entryX=0;entryY=0.5;entryDx=0;entryDy=0;" parent="1" target="tTHf1RySXlvjNt78tsi--61" edge="1">
          <mxGeometry width="50" height="50" relative="1" as="geometry">
            <mxPoint x="-146.75" y="314.5" as="sourcePoint" />
            <mxPoint x="3.2499999999999982" y="315" as="targetPoint" />
          </mxGeometry>
        </mxCell>
        <mxCell id="tTHf1RySXlvjNt78tsi--74" value="Instanciate Secret &lt;br style=&quot;font-size: 13px;&quot;&gt;Order Book Pair" style="edgeLabel;html=1;align=center;verticalAlign=middle;resizable=0;points=[];fontStyle=0;fontSize=13;" parent="tTHf1RySXlvjNt78tsi--73" vertex="1" connectable="0">
          <mxGeometry x="0.4921" y="1" relative="1" as="geometry">
            <mxPoint x="-41.47" y="-19.370000000000005" as="offset" />
          </mxGeometry>
        </mxCell>
        <mxCell id="Mdr6AUOhPEwGtwTT3Bjl-1" value="" style="rounded=0;whiteSpace=wrap;html=1;dashed=1;strokeWidth=3;" parent="1" vertex="1">
          <mxGeometry x="-174.75" y="710" width="780" height="320" as="geometry" />
        </mxCell>
        <mxCell id="Mdr6AUOhPEwGtwTT3Bjl-2" value="&lt;b&gt;&lt;font style=&quot;font-size: 18px&quot;&gt;3. Create Limit Order - Buy 1 sETH with 10 sSCRT&lt;br&gt;&lt;/font&gt;&lt;/b&gt;" style="text;html=1;strokeColor=none;fillColor=none;align=center;verticalAlign=middle;whiteSpace=wrap;rounded=0;dashed=1;" parent="1" vertex="1">
          <mxGeometry x="-164.75" y="720" width="440" height="20" as="geometry" />
        </mxCell>
        <mxCell id="Mdr6AUOhPEwGtwTT3Bjl-3" value="&lt;span style=&quot;font-size: 14px&quot;&gt;Create Limit Order&lt;/span&gt;" style="edgeStyle=orthogonalEdgeStyle;rounded=0;orthogonalLoop=1;jettySize=auto;html=1;exitX=1;exitY=0.5;exitDx=0;exitDy=0;" parent="1" source="Mdr6AUOhPEwGtwTT3Bjl-16" target="Mdr6AUOhPEwGtwTT3Bjl-11" edge="1">
          <mxGeometry x="-0.0501" y="13" relative="1" as="geometry">
            <mxPoint as="offset" />
            <mxPoint x="163.63" y="812.5" as="sourcePoint" />
          </mxGeometry>
        </mxCell>
        <mxCell id="1_kVxbksmSKJ07v7EntI-2" style="edgeStyle=orthogonalEdgeStyle;rounded=0;orthogonalLoop=1;jettySize=auto;html=1;exitX=0.5;exitY=1;exitDx=0;exitDy=0;entryX=0.5;entryY=0;entryDx=0;entryDy=0;" edge="1" parent="1" source="Mdr6AUOhPEwGtwTT3Bjl-11" target="1_kVxbksmSKJ07v7EntI-1">
          <mxGeometry relative="1" as="geometry" />
        </mxCell>
        <mxCell id="Mdr6AUOhPEwGtwTT3Bjl-11" value="&lt;font style=&quot;font-size: 14px&quot;&gt;Secret Order Book&lt;/font&gt;" style="rounded=0;whiteSpace=wrap;html=1;fillColor=#dae8fc;strokeColor=#6c8ebf;" parent="1" vertex="1">
          <mxGeometry x="348.63" y="770" width="116.75" height="90" as="geometry" />
        </mxCell>
        <mxCell id="Mdr6AUOhPEwGtwTT3Bjl-14" value="" style="endArrow=classic;html=1;entryX=0;entryY=0.5;entryDx=0;entryDy=0;exitX=0.029;exitY=0.524;exitDx=0;exitDy=0;exitPerimeter=0;" parent="1" target="Mdr6AUOhPEwGtwTT3Bjl-16" edge="1">
          <mxGeometry width="50" height="50" relative="1" as="geometry">
            <mxPoint x="-144.87000000000006" y="812.4200000000001" as="sourcePoint" />
            <mxPoint x="14.83" y="812.5" as="targetPoint" />
          </mxGeometry>
        </mxCell>
        <mxCell id="Mdr6AUOhPEwGtwTT3Bjl-15" value="Send 10 sSCRT" style="edgeLabel;html=1;align=center;verticalAlign=middle;resizable=0;points=[];fontStyle=0;fontSize=13;" parent="Mdr6AUOhPEwGtwTT3Bjl-14" vertex="1" connectable="0">
          <mxGeometry x="0.4921" y="1" relative="1" as="geometry">
            <mxPoint x="-55.5" y="-19.370000000000005" as="offset" />
          </mxGeometry>
        </mxCell>
        <mxCell id="Mdr6AUOhPEwGtwTT3Bjl-16" value="&lt;font style=&quot;font-size: 14px&quot;&gt;SNIP20&lt;br&gt;Token&lt;br&gt;sSCRT&lt;br&gt;&lt;/font&gt;" style="whiteSpace=wrap;html=1;aspect=fixed;fillColor=#e1d5e7;strokeColor=#9673a6;" parent="1" vertex="1">
          <mxGeometry x="68.63" y="774.5" width="80" height="80" as="geometry" />
        </mxCell>
        <mxCell id="Mdr6AUOhPEwGtwTT3Bjl-18" value="Message to Secret Order Book&lt;br&gt;Bid 1 sETH for 10 sSCRT&amp;nbsp;" style="edgeLabel;html=1;align=center;verticalAlign=middle;resizable=0;points=[];fontStyle=0;fontSize=13;" parent="1" vertex="1" connectable="0">
          <mxGeometry x="-31.365914554999" y="839.4959707389025" as="geometry">
            <mxPoint x="-4" y="-5" as="offset" />
          </mxGeometry>
        </mxCell>
        <mxCell id="Mdr6AUOhPEwGtwTT3Bjl-21" value="&lt;span style=&quot;font-size: 13px ; background-color: rgb(255 , 255 , 255)&quot;&gt;Bid 1 sETH for 10 sSCRT&amp;nbsp;&lt;/span&gt;" style="text;html=1;strokeColor=none;fillColor=none;align=center;verticalAlign=middle;whiteSpace=wrap;rounded=0;dashed=1;fontSize=14;" parent="1" vertex="1">
          <mxGeometry x="166.63" y="819.5" width="160" height="20" as="geometry" />
        </mxCell>
        <mxCell id="Mdr6AUOhPEwGtwTT3Bjl-25" value="Store Factory VK" style="rounded=0;whiteSpace=wrap;html=1;strokeWidth=1;fontSize=12;fillColor=#f5f5f5;strokeColor=#666666;fontColor=#333333;" parent="1" vertex="1">
          <mxGeometry x="193.13" y="248" width="110" height="20" as="geometry" />
        </mxCell>
        <mxCell id="Mdr6AUOhPEwGtwTT3Bjl-26" value="Add Limit Order" style="rounded=0;whiteSpace=wrap;html=1;strokeWidth=1;fontSize=12;fillColor=#f5f5f5;strokeColor=#666666;fontColor=#333333;" parent="1" vertex="1">
          <mxGeometry x="465.38" y="796" width="110" height="20" as="geometry" />
        </mxCell>
        <mxCell id="Mdr6AUOhPEwGtwTT3Bjl-27" value="Update Order Book" style="rounded=0;whiteSpace=wrap;html=1;strokeWidth=1;fontSize=12;fillColor=#f5f5f5;strokeColor=#666666;fontColor=#333333;" parent="1" vertex="1">
          <mxGeometry x="465.38" y="816" width="110" height="20" as="geometry" />
        </mxCell>
        <mxCell id="Mdr6AUOhPEwGtwTT3Bjl-41" value="" style="rounded=0;whiteSpace=wrap;html=1;dashed=1;strokeWidth=3;" parent="1" vertex="1">
          <mxGeometry x="-174.75" y="1280" width="630" height="210" as="geometry" />
        </mxCell>
        <mxCell id="Mdr6AUOhPEwGtwTT3Bjl-42" value="&lt;b&gt;&lt;font style=&quot;font-size: 18px&quot;&gt;5.1. Retrieve Limit Order - Not triggered yet (10 sSCRT)&lt;br&gt;&lt;/font&gt;&lt;/b&gt;" style="text;html=1;strokeColor=none;fillColor=none;align=center;verticalAlign=middle;whiteSpace=wrap;rounded=0;dashed=1;" parent="1" vertex="1">
          <mxGeometry x="-164.75" y="1290" width="480" height="20" as="geometry" />
        </mxCell>
        <mxCell id="Mdr6AUOhPEwGtwTT3Bjl-44" value="&lt;font style=&quot;font-size: 14px&quot;&gt;Secret Order Book&lt;/font&gt;" style="rounded=0;whiteSpace=wrap;html=1;fillColor=#dae8fc;strokeColor=#6c8ebf;" parent="1" vertex="1">
          <mxGeometry x="56.95" y="1340" width="140.13" height="90" as="geometry" />
        </mxCell>
        <mxCell id="Mdr6AUOhPEwGtwTT3Bjl-45" value="" style="endArrow=classic;html=1;entryX=0;entryY=0.5;entryDx=0;entryDy=0;exitX=1;exitY=0.5;exitDx=0;exitDy=0;startArrow=classic;startFill=1;" parent="1" source="Mdr6AUOhPEwGtwTT3Bjl-44" target="Mdr6AUOhPEwGtwTT3Bjl-47" edge="1">
          <mxGeometry width="50" height="50" relative="1" as="geometry">
            <mxPoint x="655.25" y="1297.92" as="sourcePoint" />
            <mxPoint x="814.95" y="1298" as="targetPoint" />
          </mxGeometry>
        </mxCell>
        <mxCell id="Mdr6AUOhPEwGtwTT3Bjl-46" value="Transfer 10 sSCRT" style="edgeLabel;html=1;align=center;verticalAlign=middle;resizable=0;points=[];fontStyle=0;fontSize=13;" parent="Mdr6AUOhPEwGtwTT3Bjl-45" vertex="1" connectable="0">
          <mxGeometry x="0.4921" y="1" relative="1" as="geometry">
            <mxPoint x="-42.83" y="-14.000000000000004" as="offset" />
          </mxGeometry>
        </mxCell>
        <mxCell id="Mdr6AUOhPEwGtwTT3Bjl-47" value="&lt;font style=&quot;font-size: 14px&quot;&gt;SNIP20&lt;br&gt;Token&lt;br&gt;sSCRT&lt;br&gt;&lt;/font&gt;" style="whiteSpace=wrap;html=1;aspect=fixed;fillColor=#e1d5e7;strokeColor=#9673a6;" parent="1" vertex="1">
          <mxGeometry x="345.25" y="1345" width="80" height="80" as="geometry" />
        </mxCell>
        <mxCell id="Mdr6AUOhPEwGtwTT3Bjl-51" value="Remove Limit Order" style="rounded=0;whiteSpace=wrap;html=1;strokeWidth=1;fontSize=12;fillColor=#f5f5f5;strokeColor=#666666;fontColor=#333333;" parent="1" vertex="1">
          <mxGeometry x="72.00999999999999" y="1430" width="110" height="20" as="geometry" />
        </mxCell>
        <mxCell id="Mdr6AUOhPEwGtwTT3Bjl-52" value="Update Order Book" style="rounded=0;whiteSpace=wrap;html=1;strokeWidth=1;fontSize=12;fillColor=#f5f5f5;strokeColor=#666666;fontColor=#333333;" parent="1" vertex="1">
          <mxGeometry x="72.00999999999999" y="1450" width="110" height="20" as="geometry" />
        </mxCell>
        <mxCell id="Mdr6AUOhPEwGtwTT3Bjl-53" value="" style="endArrow=classic;html=1;exitX=0.029;exitY=0.524;exitDx=0;exitDy=0;exitPerimeter=0;" parent="1" edge="1">
          <mxGeometry width="50" height="50" relative="1" as="geometry">
            <mxPoint x="-144.87000000000012" y="1383.96" as="sourcePoint" />
            <mxPoint x="55.25" y="1386" as="targetPoint" />
          </mxGeometry>
        </mxCell>
        <mxCell id="Mdr6AUOhPEwGtwTT3Bjl-54" value="Retrieve Limit Order" style="edgeLabel;html=1;align=center;verticalAlign=middle;resizable=0;points=[];fontStyle=0;fontSize=13;" parent="Mdr6AUOhPEwGtwTT3Bjl-53" vertex="1" connectable="0">
          <mxGeometry x="0.4921" y="1" relative="1" as="geometry">
            <mxPoint x="-55.5" y="-19.370000000000005" as="offset" />
          </mxGeometry>
        </mxCell>
        <mxCell id="Mdr6AUOhPEwGtwTT3Bjl-55" value="" style="rounded=0;whiteSpace=wrap;html=1;dashed=1;strokeWidth=3;" parent="1" vertex="1">
          <mxGeometry x="-174.75" y="1510" width="630" height="190" as="geometry" />
        </mxCell>
        <mxCell id="Mdr6AUOhPEwGtwTT3Bjl-56" value="&lt;b&gt;&lt;font style=&quot;font-size: 18px&quot;&gt;5.2. Retrieve Limit Order - Total Triggered (1 sETH)&lt;br&gt;&lt;/font&gt;&lt;/b&gt;" style="text;html=1;strokeColor=none;fillColor=none;align=center;verticalAlign=middle;whiteSpace=wrap;rounded=0;dashed=1;" parent="1" vertex="1">
          <mxGeometry x="-164.75" y="1520" width="440" height="20" as="geometry" />
        </mxCell>
        <mxCell id="Mdr6AUOhPEwGtwTT3Bjl-57" value="&lt;font style=&quot;font-size: 14px&quot;&gt;Secret Order Book&lt;/font&gt;" style="rounded=0;whiteSpace=wrap;html=1;fillColor=#dae8fc;strokeColor=#6c8ebf;" parent="1" vertex="1">
          <mxGeometry x="56.95" y="1570" width="140.13" height="90" as="geometry" />
        </mxCell>
        <mxCell id="Mdr6AUOhPEwGtwTT3Bjl-58" value="" style="endArrow=classic;html=1;entryX=0;entryY=0.5;entryDx=0;entryDy=0;exitX=1;exitY=0.5;exitDx=0;exitDy=0;startArrow=classic;startFill=1;" parent="1" source="Mdr6AUOhPEwGtwTT3Bjl-57" target="Mdr6AUOhPEwGtwTT3Bjl-60" edge="1">
          <mxGeometry width="50" height="50" relative="1" as="geometry">
            <mxPoint x="655.25" y="1527.92" as="sourcePoint" />
            <mxPoint x="814.95" y="1528" as="targetPoint" />
          </mxGeometry>
        </mxCell>
        <mxCell id="Mdr6AUOhPEwGtwTT3Bjl-59" value="Transfer 1 sETH" style="edgeLabel;html=1;align=center;verticalAlign=middle;resizable=0;points=[];fontStyle=0;fontSize=13;" parent="Mdr6AUOhPEwGtwTT3Bjl-58" vertex="1" connectable="0">
          <mxGeometry x="0.4921" y="1" relative="1" as="geometry">
            <mxPoint x="-42.83" y="-14.000000000000004" as="offset" />
          </mxGeometry>
        </mxCell>
        <mxCell id="Mdr6AUOhPEwGtwTT3Bjl-60" value="&lt;font style=&quot;font-size: 14px&quot;&gt;SNIP20&lt;br&gt;Token&lt;br&gt;sETH&lt;br&gt;&lt;/font&gt;" style="whiteSpace=wrap;html=1;aspect=fixed;fillColor=#e1d5e7;strokeColor=#9673a6;" parent="1" vertex="1">
          <mxGeometry x="345.25" y="1575" width="80" height="80" as="geometry" />
        </mxCell>
        <mxCell id="Mdr6AUOhPEwGtwTT3Bjl-64" value="" style="endArrow=classic;html=1;exitX=0.029;exitY=0.524;exitDx=0;exitDy=0;exitPerimeter=0;" parent="1" edge="1">
          <mxGeometry width="50" height="50" relative="1" as="geometry">
            <mxPoint x="-144.87000000000012" y="1613.96" as="sourcePoint" />
            <mxPoint x="55.25" y="1616" as="targetPoint" />
          </mxGeometry>
        </mxCell>
        <mxCell id="Mdr6AUOhPEwGtwTT3Bjl-65" value="Retrieve Limit Order" style="edgeLabel;html=1;align=center;verticalAlign=middle;resizable=0;points=[];fontStyle=0;fontSize=13;" parent="Mdr6AUOhPEwGtwTT3Bjl-64" vertex="1" connectable="0">
          <mxGeometry x="0.4921" y="1" relative="1" as="geometry">
            <mxPoint x="-55.5" y="-19.370000000000005" as="offset" />
          </mxGeometry>
        </mxCell>
        <mxCell id="Mdr6AUOhPEwGtwTT3Bjl-104" value="" style="rounded=0;whiteSpace=wrap;html=1;dashed=1;strokeWidth=3;" parent="1" vertex="1">
          <mxGeometry x="-174.75" y="500" width="430" height="180" as="geometry" />
        </mxCell>
        <mxCell id="Mdr6AUOhPEwGtwTT3Bjl-105" value="&lt;b&gt;&lt;font style=&quot;font-size: 18px&quot;&gt;2. Create ViewKey - For authenticated queries&lt;br&gt;&lt;/font&gt;&lt;/b&gt;" style="text;html=1;strokeColor=none;fillColor=none;align=center;verticalAlign=middle;whiteSpace=wrap;rounded=0;dashed=1;" parent="1" vertex="1">
          <mxGeometry x="-164.75" y="510" width="400" height="20" as="geometry" />
        </mxCell>
        <mxCell id="Mdr6AUOhPEwGtwTT3Bjl-108" value="&lt;font style=&quot;font-size: 14px&quot;&gt;Factory&lt;/font&gt;" style="rounded=0;whiteSpace=wrap;html=1;fillColor=#ffe6cc;strokeColor=#d79b00;" parent="1" vertex="1">
          <mxGeometry x="-2.4299999999999997" y="562.5" width="140.13" height="90" as="geometry" />
        </mxCell>
        <mxCell id="Mdr6AUOhPEwGtwTT3Bjl-109" value="" style="endArrow=classic;html=1;entryX=0;entryY=0.25;entryDx=0;entryDy=0;" parent="1" target="Mdr6AUOhPEwGtwTT3Bjl-108" edge="1">
          <mxGeometry width="50" height="50" relative="1" as="geometry">
            <mxPoint x="-150.75" y="585" as="sourcePoint" />
            <mxPoint x="-4.130000000000109" y="608.5" as="targetPoint" />
          </mxGeometry>
        </mxCell>
        <mxCell id="Mdr6AUOhPEwGtwTT3Bjl-110" value="(1) Create View Key" style="edgeLabel;html=1;align=center;verticalAlign=middle;resizable=0;points=[];fontStyle=0;fontSize=14;" parent="Mdr6AUOhPEwGtwTT3Bjl-109" vertex="1" connectable="0">
          <mxGeometry x="0.4921" y="1" relative="1" as="geometry">
            <mxPoint x="-40.59" y="-19.370000000000005" as="offset" />
          </mxGeometry>
        </mxCell>
        <mxCell id="Mdr6AUOhPEwGtwTT3Bjl-112" value="" style="endArrow=none;html=1;entryX=0;entryY=0.25;entryDx=0;entryDy=0;startArrow=classic;startFill=1;endFill=0;" parent="1" edge="1">
          <mxGeometry width="50" height="50" relative="1" as="geometry">
            <mxPoint x="-150.75" y="630" as="sourcePoint" />
            <mxPoint x="-2.4299999999993815" y="630" as="targetPoint" />
          </mxGeometry>
        </mxCell>
        <mxCell id="Mdr6AUOhPEwGtwTT3Bjl-113" value="(2) User View Key" style="edgeLabel;html=1;align=center;verticalAlign=middle;resizable=0;points=[];fontStyle=0;fontSize=14;" parent="Mdr6AUOhPEwGtwTT3Bjl-112" vertex="1" connectable="0">
          <mxGeometry x="0.4921" y="1" relative="1" as="geometry">
            <mxPoint x="-40.59" y="20.999999999999993" as="offset" />
          </mxGeometry>
        </mxCell>
        <mxCell id="Mdr6AUOhPEwGtwTT3Bjl-114" value="" style="rounded=0;whiteSpace=wrap;html=1;dashed=1;strokeWidth=3;" parent="1" vertex="1">
          <mxGeometry x="-174.75" y="1060" width="630" height="180" as="geometry" />
        </mxCell>
        <mxCell id="Mdr6AUOhPEwGtwTT3Bjl-115" value="&lt;b&gt;&lt;font style=&quot;font-size: 18px&quot;&gt;4. Get Limit Order - Authenticated Query (ViewKey)&lt;br&gt;&lt;/font&gt;&lt;/b&gt;" style="text;html=1;strokeColor=none;fillColor=none;align=center;verticalAlign=middle;whiteSpace=wrap;rounded=0;dashed=1;" parent="1" vertex="1">
          <mxGeometry x="-164.75" y="1070" width="450" height="20" as="geometry" />
        </mxCell>
        <mxCell id="Mdr6AUOhPEwGtwTT3Bjl-116" style="edgeStyle=orthogonalEdgeStyle;rounded=0;orthogonalLoop=1;jettySize=auto;html=1;exitX=1;exitY=0.5;exitDx=0;exitDy=0;entryX=0;entryY=0.5;entryDx=0;entryDy=0;startArrow=classic;startFill=1;fontSize=14;" parent="1" source="Mdr6AUOhPEwGtwTT3Bjl-118" target="Mdr6AUOhPEwGtwTT3Bjl-121" edge="1">
          <mxGeometry relative="1" as="geometry" />
        </mxCell>
        <mxCell id="Mdr6AUOhPEwGtwTT3Bjl-117" value="(2) Check ViewKey isValid" style="edgeLabel;html=1;align=center;verticalAlign=middle;resizable=0;points=[];fontSize=14;" parent="Mdr6AUOhPEwGtwTT3Bjl-116" vertex="1" connectable="0">
          <mxGeometry x="-0.3365" y="-5" relative="1" as="geometry">
            <mxPoint x="29.730000000000004" y="-20" as="offset" />
          </mxGeometry>
        </mxCell>
        <mxCell id="Mdr6AUOhPEwGtwTT3Bjl-118" value="&lt;font style=&quot;font-size: 14px&quot;&gt;Secret Order Book&lt;/font&gt;" style="rounded=0;whiteSpace=wrap;html=1;fillColor=#dae8fc;strokeColor=#6c8ebf;" parent="1" vertex="1">
          <mxGeometry x="-2.42999999999995" y="1122.5" width="140.13" height="90" as="geometry" />
        </mxCell>
        <mxCell id="Mdr6AUOhPEwGtwTT3Bjl-119" value="" style="endArrow=classic;html=1;entryX=0;entryY=0.25;entryDx=0;entryDy=0;" parent="1" target="Mdr6AUOhPEwGtwTT3Bjl-118" edge="1">
          <mxGeometry width="50" height="50" relative="1" as="geometry">
            <mxPoint x="-150.75" y="1145" as="sourcePoint" />
            <mxPoint x="-4.130000000000109" y="1168.5" as="targetPoint" />
          </mxGeometry>
        </mxCell>
        <mxCell id="Mdr6AUOhPEwGtwTT3Bjl-120" value="(1) Get Limit Order" style="edgeLabel;html=1;align=center;verticalAlign=middle;resizable=0;points=[];fontStyle=0;fontSize=14;" parent="Mdr6AUOhPEwGtwTT3Bjl-119" vertex="1" connectable="0">
          <mxGeometry x="0.4921" y="1" relative="1" as="geometry">
            <mxPoint x="-40.59" y="-19.370000000000005" as="offset" />
          </mxGeometry>
        </mxCell>
        <mxCell id="Mdr6AUOhPEwGtwTT3Bjl-121" value="&lt;font style=&quot;font-size: 14px&quot;&gt;Factory&lt;/font&gt;" style="whiteSpace=wrap;html=1;aspect=fixed;fillColor=#ffe6cc;strokeColor=#d79b00;" parent="1" vertex="1">
          <mxGeometry x="337.25" y="1120" width="95" height="95" as="geometry" />
        </mxCell>
        <mxCell id="Mdr6AUOhPEwGtwTT3Bjl-122" value="" style="endArrow=none;html=1;entryX=0;entryY=0.25;entryDx=0;entryDy=0;startArrow=classic;startFill=1;endFill=0;" parent="1" edge="1">
          <mxGeometry width="50" height="50" relative="1" as="geometry">
            <mxPoint x="-150.75" y="1190" as="sourcePoint" />
            <mxPoint x="-2.4299999999993815" y="1190" as="targetPoint" />
          </mxGeometry>
        </mxCell>
        <mxCell id="Mdr6AUOhPEwGtwTT3Bjl-123" value="(3) User Limit Order" style="edgeLabel;html=1;align=center;verticalAlign=middle;resizable=0;points=[];fontStyle=0;fontSize=14;" parent="Mdr6AUOhPEwGtwTT3Bjl-122" vertex="1" connectable="0">
          <mxGeometry x="0.4921" y="1" relative="1" as="geometry">
            <mxPoint x="-40.59" y="20.999999999999993" as="offset" />
          </mxGeometry>
        </mxCell>
        <mxCell id="Mdr6AUOhPEwGtwTT3Bjl-127" value="" style="rounded=0;whiteSpace=wrap;html=1;dashed=1;strokeWidth=3;" parent="1" vertex="1">
          <mxGeometry x="-174.62" y="1930" width="750" height="330" as="geometry" />
        </mxCell>
        <mxCell id="Mdr6AUOhPEwGtwTT3Bjl-128" value="&lt;b&gt;&lt;font style=&quot;font-size: 18px&quot;&gt;7. Trigger Limit Orders&lt;br&gt;&lt;/font&gt;&lt;/b&gt;" style="text;html=1;strokeColor=none;fillColor=none;align=center;verticalAlign=middle;whiteSpace=wrap;rounded=0;dashed=1;" parent="1" vertex="1">
          <mxGeometry x="-164.62" y="1940" width="204.75" height="20" as="geometry" />
        </mxCell>
        <mxCell id="Mdr6AUOhPEwGtwTT3Bjl-147" style="edgeStyle=orthogonalEdgeStyle;rounded=0;orthogonalLoop=1;jettySize=auto;html=1;exitX=1;exitY=0.5;exitDx=0;exitDy=0;entryX=0;entryY=0.75;entryDx=0;entryDy=0;startArrow=none;startFill=0;endArrow=classic;endFill=1;fontSize=14;" parent="1" source="Mdr6AUOhPEwGtwTT3Bjl-129" target="Mdr6AUOhPEwGtwTT3Bjl-132" edge="1">
          <mxGeometry relative="1" as="geometry">
            <Array as="points">
              <mxPoint x="307" y="2025" />
              <mxPoint x="307" y="2106" />
            </Array>
          </mxGeometry>
        </mxCell>
        <mxCell id="Mdr6AUOhPEwGtwTT3Bjl-148" style="edgeStyle=orthogonalEdgeStyle;rounded=0;orthogonalLoop=1;jettySize=auto;html=1;exitX=1;exitY=0.25;exitDx=0;exitDy=0;entryX=0.5;entryY=0;entryDx=0;entryDy=0;startArrow=classic;startFill=1;endArrow=classic;endFill=1;fontSize=14;" parent="1" source="Mdr6AUOhPEwGtwTT3Bjl-129" target="Mdr6AUOhPEwGtwTT3Bjl-132" edge="1">
          <mxGeometry relative="1" as="geometry" />
        </mxCell>
        <mxCell id="Mdr6AUOhPEwGtwTT3Bjl-150" value="(2) Check Token Price" style="edgeLabel;html=1;align=center;verticalAlign=middle;resizable=0;points=[];fontSize=14;" parent="Mdr6AUOhPEwGtwTT3Bjl-148" vertex="1" connectable="0">
          <mxGeometry x="0.3119" y="1" relative="1" as="geometry">
            <mxPoint x="-42.04" y="-21.52" as="offset" />
          </mxGeometry>
        </mxCell>
        <mxCell id="Mdr6AUOhPEwGtwTT3Bjl-129" value="&lt;font style=&quot;font-size: 14px&quot;&gt;Secret Order Book&lt;/font&gt;" style="rounded=0;whiteSpace=wrap;html=1;fillColor=#dae8fc;strokeColor=#6c8ebf;" parent="1" vertex="1">
          <mxGeometry x="132.38" y="1980.02" width="140.13" height="90" as="geometry" />
        </mxCell>
        <mxCell id="1_kVxbksmSKJ07v7EntI-6" style="edgeStyle=orthogonalEdgeStyle;rounded=0;orthogonalLoop=1;jettySize=auto;html=1;exitX=0.5;exitY=1;exitDx=0;exitDy=0;entryX=1;entryY=0.5;entryDx=0;entryDy=0;startArrow=none;startFill=0;" edge="1" parent="1" source="Mdr6AUOhPEwGtwTT3Bjl-132" target="1_kVxbksmSKJ07v7EntI-5">
          <mxGeometry relative="1" as="geometry" />
        </mxCell>
        <mxCell id="Mdr6AUOhPEwGtwTT3Bjl-132" value="&lt;font style=&quot;font-size: 14px&quot;&gt;Secret AMM&lt;br&gt;Pair&lt;br&gt;&lt;/font&gt;" style="whiteSpace=wrap;html=1;aspect=fixed;fillColor=#d5e8d4;strokeColor=#82b366;" parent="1" vertex="1">
          <mxGeometry x="455.38" y="2035.02" width="95" height="95" as="geometry" />
        </mxCell>
        <mxCell id="Mdr6AUOhPEwGtwTT3Bjl-133" value="Update Balance" style="rounded=0;whiteSpace=wrap;html=1;strokeWidth=1;fontSize=12;fillColor=#f5f5f5;strokeColor=#666666;fontColor=#333333;" parent="1" vertex="1">
          <mxGeometry x="147.44" y="2070.02" width="110" height="20" as="geometry" />
        </mxCell>
        <mxCell id="Mdr6AUOhPEwGtwTT3Bjl-134" value="Update Limit Order" style="rounded=0;whiteSpace=wrap;html=1;strokeWidth=1;fontSize=12;fillColor=#f5f5f5;strokeColor=#666666;fontColor=#333333;" parent="1" vertex="1">
          <mxGeometry x="147.44" y="2090.02" width="110" height="20" as="geometry" />
        </mxCell>
        <mxCell id="Mdr6AUOhPEwGtwTT3Bjl-135" value="Update Order Book" style="rounded=0;whiteSpace=wrap;html=1;strokeWidth=1;fontSize=12;fillColor=#f5f5f5;strokeColor=#666666;fontColor=#333333;" parent="1" vertex="1">
          <mxGeometry x="147.44" y="2110.02" width="110" height="20" as="geometry" />
        </mxCell>
        <mxCell id="Mdr6AUOhPEwGtwTT3Bjl-140" style="edgeStyle=orthogonalEdgeStyle;rounded=0;orthogonalLoop=1;jettySize=auto;html=1;exitX=1;exitY=0.5;exitDx=0;exitDy=0;startArrow=none;startFill=0;endArrow=classic;endFill=1;fontSize=14;" parent="1" source="Mdr6AUOhPEwGtwTT3Bjl-138" target="Mdr6AUOhPEwGtwTT3Bjl-129" edge="1">
          <mxGeometry relative="1" as="geometry" />
        </mxCell>
        <mxCell id="Mdr6AUOhPEwGtwTT3Bjl-142" value="(1) Execute Trigger" style="edgeLabel;html=1;align=center;verticalAlign=middle;resizable=0;points=[];fontSize=14;" parent="Mdr6AUOhPEwGtwTT3Bjl-140" vertex="1" connectable="0">
          <mxGeometry x="0.2407" y="-5" relative="1" as="geometry">
            <mxPoint x="-20.32" y="-25" as="offset" />
          </mxGeometry>
        </mxCell>
        <mxCell id="Mdr6AUOhPEwGtwTT3Bjl-138" value="&lt;font style=&quot;font-size: 14px&quot;&gt;Order Triggerer&lt;/font&gt;" style="rounded=0;whiteSpace=wrap;html=1;fillColor=#f8cecc;strokeColor=#b85450;" parent="1" vertex="1">
          <mxGeometry x="-146.12" y="1980.02" width="120" height="90" as="geometry" />
        </mxCell>
        <mxCell id="Mdr6AUOhPEwGtwTT3Bjl-141" value="10 sSCRT for 1 sETH" style="edgeLabel;html=1;align=center;verticalAlign=middle;resizable=0;points=[];fontStyle=0;fontSize=13;" parent="1" vertex="1" connectable="0">
          <mxGeometry x="377.37746356998684" y="2120.0214051674834" as="geometry" />
        </mxCell>
        <mxCell id="Mdr6AUOhPEwGtwTT3Bjl-149" value="(3) Swap Tokens" style="edgeLabel;html=1;align=center;verticalAlign=middle;resizable=0;points=[];fontStyle=0;fontSize=13;" parent="1" vertex="1" connectable="0">
          <mxGeometry x="387.37746356998684" y="2090.0214051674834" as="geometry">
            <mxPoint x="-6" y="-4" as="offset" />
          </mxGeometry>
        </mxCell>
        <mxCell id="Mdr6AUOhPEwGtwTT3Bjl-153" value="" style="rounded=0;whiteSpace=wrap;html=1;dashed=1;strokeWidth=3;" parent="1" vertex="1">
          <mxGeometry x="-174.62" y="1730" width="724.75" height="180" as="geometry" />
        </mxCell>
        <mxCell id="Mdr6AUOhPEwGtwTT3Bjl-154" value="&lt;b&gt;&lt;font style=&quot;font-size: 18px&quot;&gt;6. Check Order Book Trigger&lt;br&gt;&lt;/font&gt;&lt;/b&gt;" style="text;html=1;strokeColor=none;fillColor=none;align=center;verticalAlign=middle;whiteSpace=wrap;rounded=0;dashed=1;" parent="1" vertex="1">
          <mxGeometry x="-164.62" y="1740" width="254.75" height="20" as="geometry" />
        </mxCell>
        <mxCell id="t3SGVUeOcSnNwYDZsion-8" style="edgeStyle=orthogonalEdgeStyle;rounded=0;orthogonalLoop=1;jettySize=auto;html=1;exitX=1;exitY=0.5;exitDx=0;exitDy=0;fontSize=14;" parent="1" source="Mdr6AUOhPEwGtwTT3Bjl-157" target="t3SGVUeOcSnNwYDZsion-7" edge="1">
          <mxGeometry relative="1" as="geometry" />
        </mxCell>
        <mxCell id="t3SGVUeOcSnNwYDZsion-9" value="(2)" style="edgeLabel;html=1;align=center;verticalAlign=middle;resizable=0;points=[];fontSize=14;" parent="t3SGVUeOcSnNwYDZsion-8" vertex="1" connectable="0">
          <mxGeometry x="0.2701" relative="1" as="geometry">
            <mxPoint x="-16.89" as="offset" />
          </mxGeometry>
        </mxCell>
        <mxCell id="Mdr6AUOhPEwGtwTT3Bjl-157" value="&lt;font style=&quot;font-size: 14px&quot;&gt;Secret Order Book&lt;/font&gt;" style="rounded=0;whiteSpace=wrap;html=1;fillColor=#dae8fc;strokeColor=#6c8ebf;" parent="1" vertex="1">
          <mxGeometry x="184.14000000000004" y="1792.5" width="140.13" height="90" as="geometry" />
        </mxCell>
        <mxCell id="Mdr6AUOhPEwGtwTT3Bjl-158" value="" style="endArrow=classic;html=1;entryX=0;entryY=0.25;entryDx=0;entryDy=0;" parent="1" target="Mdr6AUOhPEwGtwTT3Bjl-157" edge="1">
          <mxGeometry width="50" height="50" relative="1" as="geometry">
            <mxPoint x="-26.12" y="1815" as="sourcePoint" />
            <mxPoint x="120.49999999999989" y="1838.5" as="targetPoint" />
          </mxGeometry>
        </mxCell>
        <mxCell id="Mdr6AUOhPEwGtwTT3Bjl-159" value="(1) Check Order Book Trigger" style="edgeLabel;html=1;align=center;verticalAlign=middle;resizable=0;points=[];fontStyle=0;fontSize=14;" parent="Mdr6AUOhPEwGtwTT3Bjl-158" vertex="1" connectable="0">
          <mxGeometry x="0.4921" y="1" relative="1" as="geometry">
            <mxPoint x="-56.21" y="-19.370000000000005" as="offset" />
          </mxGeometry>
        </mxCell>
        <mxCell id="Mdr6AUOhPEwGtwTT3Bjl-161" value="" style="endArrow=none;html=1;entryX=0;entryY=0.75;entryDx=0;entryDy=0;startArrow=classic;startFill=1;endFill=0;" parent="1" target="Mdr6AUOhPEwGtwTT3Bjl-157" edge="1">
          <mxGeometry width="50" height="50" relative="1" as="geometry">
            <mxPoint x="-26.12" y="1860" as="sourcePoint" />
            <mxPoint x="122.20000000000061" y="1860" as="targetPoint" />
          </mxGeometry>
        </mxCell>
        <mxCell id="Mdr6AUOhPEwGtwTT3Bjl-162" value="(3) True || False" style="edgeLabel;html=1;align=center;verticalAlign=middle;resizable=0;points=[];fontStyle=0;fontSize=14;" parent="Mdr6AUOhPEwGtwTT3Bjl-161" vertex="1" connectable="0">
          <mxGeometry x="0.4921" y="1" relative="1" as="geometry">
            <mxPoint x="-52.970000000000006" y="20.999999999999993" as="offset" />
          </mxGeometry>
        </mxCell>
        <mxCell id="Mdr6AUOhPEwGtwTT3Bjl-163" value="&lt;font style=&quot;font-size: 14px&quot;&gt;Order Triggerer&lt;/font&gt;" style="rounded=0;whiteSpace=wrap;html=1;fillColor=#f8cecc;strokeColor=#b85450;" parent="1" vertex="1">
          <mxGeometry x="-146.12" y="1790" width="120" height="90" as="geometry" />
        </mxCell>
        <mxCell id="WeckYlzUs2vSVFOy2TbZ-1" value="&lt;b&gt;&lt;font style=&quot;font-size: 24px&quot;&gt;Flows&lt;/font&gt;&lt;/b&gt;" style="text;html=1;strokeColor=none;fillColor=none;align=center;verticalAlign=middle;whiteSpace=wrap;rounded=0;" parent="1" vertex="1">
          <mxGeometry x="-194.75" y="30" width="854.75" height="50" as="geometry" />
        </mxCell>
        <mxCell id="S_jbl0eukTjqGgmrHYzT-1" value="Remove Limit Order" style="rounded=0;whiteSpace=wrap;html=1;strokeWidth=1;fontSize=12;fillColor=#f5f5f5;strokeColor=#666666;fontColor=#333333;" parent="1" vertex="1">
          <mxGeometry x="72.00999999999999" y="1660" width="110" height="20" as="geometry" />
        </mxCell>
        <mxCell id="t3SGVUeOcSnNwYDZsion-1" value="Secret AMM&lt;br&gt;Factory" style="whiteSpace=wrap;html=1;aspect=fixed;fillColor=#d5e8d4;strokeColor=#82b366;" parent="1" vertex="1">
          <mxGeometry x="-71.37" y="130" width="80" height="80" as="geometry" />
        </mxCell>
        <mxCell id="t3SGVUeOcSnNwYDZsion-2" value="Secret AMM&lt;br&gt;Pair" style="whiteSpace=wrap;html=1;aspect=fixed;fillColor=#d5e8d4;strokeColor=#82b366;" parent="1" vertex="1">
          <mxGeometry x="87.01" y="130" width="80" height="80" as="geometry" />
        </mxCell>
        <mxCell id="t3SGVUeOcSnNwYDZsion-7" value="&lt;font style=&quot;font-size: 14px&quot;&gt;Secret AMM&lt;br&gt;Pair&lt;br&gt;&lt;/font&gt;" style="whiteSpace=wrap;html=1;aspect=fixed;fillColor=#d5e8d4;strokeColor=#82b366;" parent="1" vertex="1">
          <mxGeometry x="415.38" y="1790" width="95" height="95" as="geometry" />
        </mxCell>
        <mxCell id="1_kVxbksmSKJ07v7EntI-1" value="&lt;font style=&quot;font-size: 14px&quot;&gt;Factory&lt;/font&gt;" style="whiteSpace=wrap;html=1;aspect=fixed;fillColor=#ffe6cc;strokeColor=#d79b00;" vertex="1" parent="1">
          <mxGeometry x="187.75" y="910" width="95" height="95" as="geometry" />
        </mxCell>
        <mxCell id="1_kVxbksmSKJ07v7EntI-3" value="&lt;span style=&quot;font-size: 13px ; background-color: rgb(255 , 255 , 255)&quot;&gt;Add this Order Book to this user current orders&amp;nbsp;&lt;/span&gt;" style="text;html=1;strokeColor=none;fillColor=none;align=center;verticalAlign=middle;whiteSpace=wrap;rounded=0;dashed=1;fontSize=14;" vertex="1" parent="1">
          <mxGeometry x="290" y="880" width="114.75" height="70" as="geometry" />
        </mxCell>
        <mxCell id="1_kVxbksmSKJ07v7EntI-7" style="edgeStyle=orthogonalEdgeStyle;rounded=0;orthogonalLoop=1;jettySize=auto;html=1;exitX=0;exitY=0.5;exitDx=0;exitDy=0;entryX=1;entryY=0.75;entryDx=0;entryDy=0;startArrow=none;startFill=0;" edge="1" parent="1" source="1_kVxbksmSKJ07v7EntI-5" target="Mdr6AUOhPEwGtwTT3Bjl-129">
          <mxGeometry relative="1" as="geometry">
            <Array as="points">
              <mxPoint x="290" y="2200" />
              <mxPoint x="290" y="2048" />
            </Array>
          </mxGeometry>
        </mxCell>
        <mxCell id="1_kVxbksmSKJ07v7EntI-5" value="&lt;font style=&quot;font-size: 14px&quot;&gt;SNIP20&lt;br&gt;Token&lt;br&gt;sETH&lt;br&gt;&lt;/font&gt;" style="whiteSpace=wrap;html=1;aspect=fixed;fillColor=#e1d5e7;strokeColor=#9673a6;" vertex="1" parent="1">
          <mxGeometry x="344.75" y="2160" width="80" height="80" as="geometry" />
        </mxCell>
        <mxCell id="1_kVxbksmSKJ07v7EntI-9" value="(4.2) Receiver" style="edgeLabel;html=1;align=center;verticalAlign=middle;resizable=0;points=[];fontStyle=0;fontSize=13;" vertex="1" connectable="0" parent="1">
          <mxGeometry x="289.99746356998685" y="2170.0014051674834" as="geometry">
            <mxPoint x="-3" y="2" as="offset" />
          </mxGeometry>
        </mxCell>
        <mxCell id="1_kVxbksmSKJ07v7EntI-11" value="(4.1) Transfer" style="edgeLabel;html=1;align=center;verticalAlign=middle;resizable=0;points=[];fontStyle=0;fontSize=13;" vertex="1" connectable="0" parent="1">
          <mxGeometry x="502.87746356998684" y="2170.0014051674834" as="geometry">
            <mxPoint x="-6" y="-4" as="offset" />
          </mxGeometry>
        </mxCell>
      </root>
    </mxGraphModel>
  </diagram>
</mxfile>
